#N canvas 410 50 1503 1108 10;
#X obj 321 865 dac~;
#X obj 319 498 adc~ 2;
#X obj 1051 169 adc~ 3;
#X obj 347 650 hip~ 50;
#X obj 347 672 hip~ 50;
#X obj 1025 308 dac~ 27;
#X obj 548 751 vcf~ 1500;
#X obj 845 519 loadbang;
#X obj 734 570 dac~ 28;
#X obj 788 570 dac~ 29;
#X obj 845 563 dac~ 30;
#X msg 621 577 1, f 2;
#X obj 1051 191 *~ 4000;
#X msg 734 548 4000;
#X msg 776 542 2000;
#X msg 845 541 1000;
#X obj 348 549 lop~ 1000;
#X obj 348 571 lop~ 1000;
#X connect 1 0 0 0;
#X connect 1 0 16 0;
#X connect 2 0 12 0;
#X connect 3 0 4 0;
#X connect 4 0 0 1;
#X connect 7 0 11 0;
#X connect 7 0 13 0;
#X connect 7 0 14 0;
#X connect 7 0 15 0;
#X connect 11 0 6 2;
#X connect 12 0 6 1;
#X connect 12 0 5 0;
#X connect 13 0 8 0;
#X connect 14 0 9 0;
#X connect 15 0 10 0;
#X connect 16 0 17 0;
#X connect 17 0 3 0;
