#N canvas -8 -8 1920 1117 10;
#X obj 171 66 bng 15 250 50 0 empty empty empty 17 7 0 10 -262144 -1
-1;
#X obj 154 508 dac~;
#N canvas 804 170 429 300 excitation~ 0;
#X obj 35 57 metro 3000;
#X obj 71 79 delay 10;
#X msg 35 101 0.8 100;
#X msg 35 79 1 10;
#X obj 85 101 delay 100;
#X msg 36 125 0.3 800;
#X obj 85 123 delay 800;
#X msg 37 149 0 1000;
#X obj 36 172 vline~;
#X obj 37 193 *~;
#X obj 212 64 osc~ 400;
#X obj 223 29 inlet;
#X obj 20 30 inlet;
#X obj 36 216 outlet~;
#X connect 0 0 1 0;
#X connect 0 0 3 0;
#X connect 1 0 2 0;
#X connect 1 0 4 0;
#X connect 2 0 8 0;
#X connect 3 0 8 0;
#X connect 4 0 5 0;
#X connect 4 0 6 0;
#X connect 5 0 8 0;
#X connect 6 0 7 0;
#X connect 7 0 8 0;
#X connect 8 0 9 0;
#X connect 9 0 13 0;
#X connect 10 0 9 1;
#X connect 11 0 10 0;
#X connect 12 0 0 0;
#X restore 182 212 pd excitation~;
#X obj 296 171 hsl 128 15 200 1000 0 0 empty empty empty -2 -8 0 10
-262144 -1 -1 1700 1;
#N canvas -8 -8 1920 1117 phisem~ 1;
#X obj 93 62 inlet~;
#X obj 93 84 env~;
#X obj 93 106 / 100;
#X obj 130 227 *~;
#X obj 130 432 outlet~;
#X obj 376 56 noise~;
#X obj 511 117 hsl 128 15 0.5 0.999 0 0 empty empty Threshold -2 -8
0 10 -262144 -1 -1 2500 1;
#X obj 377 85 -~ 0.9;
#X obj 378 113 clip~ 0 1;
#X obj 385 218 expr 1/(1-$f1);
#X obj 378 135 *~;
#X obj 130 282 vcf~;
#X obj 512 155 hsl 128 15 100 10000 0 0 empty empty Filter_Freq -2
-8 0 10 -262144 -1 -1 5200 1;
#X obj 512 194 hsl 128 15 0.5 10 0 0 empty empty Filter_Q -2 -8 0 10
-262144 -1 -1 6700 1;
#X obj 181 247 sig~;
#X obj 93 128 pow 1;
#X obj 512 235 hsl 128 15 1 10 0 0 empty empty Emvelope -2 -8 0 10
-262144 -1 -1 11500 1;
#X connect 0 0 1 0;
#X connect 1 0 2 0;
#X connect 2 0 15 0;
#X connect 3 0 11 0;
#X connect 5 0 7 0;
#X connect 6 0 7 1;
#X connect 6 0 9 0;
#X connect 7 0 8 0;
#X connect 8 0 10 0;
#X connect 9 0 10 1;
#X connect 10 0 3 1;
#X connect 11 0 4 0;
#X connect 12 0 14 0;
#X connect 13 0 11 2;
#X connect 14 0 11 1;
#X connect 15 0 3 0;
#X connect 16 0 15 1;
#X coords 1 1 200 200 200 200 2 500 100;
#X restore 182 249 pd phisem~;
#X connect 0 0 2 0;
#X connect 2 0 4 0;
#X connect 2 0 1 0;
#X connect 3 0 2 1;
#X connect 4 0 1 0;
